<svg width="171" height="26" viewBox="0 0 171 26" fill="none" xmlns="http://www.w3.org/2000/svg">
<g clip-path="url(#clip0_2060_32413)">
<path d="M52.2649 21.8619H64.4303V17.9525H56.8945V14.6733H63.5687V11.0339H56.8945V7.75466H64.4303V3.85812H52.2649V21.8619ZM79.5278 14.1074C77.766 16.9109 76.0556 18.0811 73.8566 18.0811C71.0017 18.0811 69.3428 16.075 69.3428 12.59C69.3428 9.28498 70.8731 7.63892 73.2265 7.63892C74.7825 7.63892 76.0685 8.33335 76.4672 10.6481H81.0967C80.5952 6.2372 77.7789 3.49805 73.2779 3.49805C68.0568 3.49805 64.6232 7.18882 64.6232 12.8472C64.6232 18.5055 68.0568 22.222 73.7023 22.222C77.3931 22.222 79.9007 20.6788 81.5596 18.5955H87.8738V21.8619H92.4777V3.85812H85.9449L79.5278 14.1074ZM87.8738 14.9819H83.7973L87.8738 8.35907V14.9819ZM42.3885 3.85812H35.6243V21.8619H42.3885C47.7511 21.8619 51.2104 18.3255 51.2104 12.86C51.2104 7.39458 47.7511 3.85812 42.3885 3.85812ZM42.3243 17.9525H40.2538V7.75466H42.3243C44.9991 7.75466 46.5037 9.64506 46.5037 12.86C46.5037 16.075 44.9991 17.9525 42.3243 17.9525ZM145.615 3.49805C140.175 3.49805 136.523 7.18882 136.523 12.86C136.523 18.5312 140.175 22.222 145.615 22.222C151.054 22.222 154.706 18.5312 154.706 12.86C154.706 7.18882 151.067 3.49805 145.615 3.49805ZM145.615 18.0811C142.94 18.0811 141.255 16.2936 141.255 12.86C141.255 9.42644 142.94 7.63892 145.615 7.63892C148.289 7.63892 149.974 9.42644 149.974 12.86C149.974 16.2936 148.302 18.0811 145.615 18.0811ZM93.6351 7.75466H98.1746V21.8619H102.804V7.75466H107.344V3.85812H93.6351V7.75466ZM166.525 3.85812V13.7731L160.558 3.85812H155.761V21.8619H160.236V11.5355L166.448 21.8619H171V3.85812H166.525ZM129.964 3.85812H125.335V21.8619H136.947V17.9654H129.964V3.85812ZM119.368 10.7253H113.131V3.85812H108.501V21.8619H113.131V14.609H119.368V21.8619H123.997V3.85812H119.368V10.7253Z" fill="black"/>
<path d="M22.5587 0C12.5049 0 0 10.401 0 19.0223C0 23.4744 3.42072 25.7197 7.9371 25.7197C11.2549 25.7197 15.2672 24.5057 19.138 22.1704V4.96905C18.1067 6.73599 13.2534 13.8603 9.35683 17.654C7.36869 19.5907 5.79465 20.4292 4.43922 20.4292C2.91661 20.4292 2.19389 19.3978 2.19389 17.8623C2.19389 10.8923 13.9246 1.83124 21.6946 1.83124C24.8941 1.83124 26.9594 3.25097 26.9594 6.01327C26.9594 8.54151 25.2439 11.7179 22.3144 14.6474V19.9765C27.4249 15.9385 30.483 10.7868 30.483 6.63311C30.4804 2.25819 27.0751 0 22.5587 0Z" fill="black"/>
</g>
<defs>
<clipPath id="clip0_2060_32413">
<rect width="171" height="25.7197" fill="white"/>
</clipPath>
</defs>
</svg>
