<svg width="118" height="84" viewBox="0 0 118 84" fill="none" xmlns="http://www.w3.org/2000/svg">
<g id="Calque_1" clip-path="url(#clip0_2048_546794)">
<path id="Vector" d="M117.465 61.0193C116.952 59.8789 116.095 59.0853 114.784 59.0808C113.34 59.0763 112.073 59.628 111.114 60.7247C110.529 61.3929 110.01 62.1199 109.489 62.8407C109.099 63.3806 108.65 63.8534 108.093 64.218C106.862 65.0223 104.968 64.6409 104.181 63.4142C103.693 62.6553 103.444 61.8051 103.723 60.9314C104.036 59.949 104.388 58.9615 104.87 58.0536C105.514 56.8427 106.244 55.6721 107.131 54.6062C107.869 53.7168 108.377 52.6862 108.752 51.6013C109.377 49.7945 108.998 47.7893 107.217 46.5235C107.027 46.388 106.833 46.2564 106.65 46.1124C105.731 45.3927 104.8 44.6864 103.901 43.9426C103.199 43.3618 103.007 42.5821 103.164 41.7062C103.246 41.2486 103.349 40.7943 103.421 40.3345C103.734 38.3238 102.255 36.5516 100.212 36.5247C98.1817 36.499 96.7386 37.4903 95.7428 39.188C95.4484 39.6898 95.3503 40.2522 95.3142 40.8313C95.2499 41.8523 95.6108 42.7838 95.8798 43.7387C96.0445 44.324 96.2306 44.93 96.2362 45.5277C96.2469 46.752 96.1911 47.9814 96.071 49.1996C95.9712 50.2106 95.7264 51.2221 95.1817 52.092C94.0324 53.9274 92.754 55.662 91.0329 57.0404C90.3229 57.6083 89.5566 57.9461 88.6729 58.0614C87.8518 58.169 87.2439 57.8234 86.7054 57.1227C86.9772 57.0555 87.1757 57.0085 87.3731 56.9569C89.5944 56.3795 91.4293 55.2526 92.719 53.3141C93.4645 52.1922 93.9771 50.9628 94.4644 49.7239C94.9589 48.4648 94.9606 47.1547 94.6561 45.8525C94.2005 43.9073 92.5871 42.5861 90.5722 42.5435C88.3114 42.4964 86.3259 43.3511 84.6866 44.7984C82.9587 46.3236 81.8252 48.2968 81.1525 50.5147C80.5062 52.6437 80.2322 54.8191 80.3782 57.0314C80.4487 58.0962 79.8295 58.7644 79.1991 59.4387C78.9053 59.754 78.6087 59.6779 78.3543 59.297C78.1908 59.0522 78.0622 58.7812 77.9427 58.5106C76.7669 55.8648 76.2898 53.0581 76.0383 50.2028C76.0197 49.9916 76.106 49.7463 76.2092 49.5514C76.8475 48.3466 77.6974 47.2864 78.559 46.2373C79.8363 44.6803 81.1277 43.1355 82.4112 41.5835C82.5324 41.4367 82.6339 41.2743 82.7473 41.1209C83.9822 39.4546 84.7937 37.5637 85.6266 35.6885C85.934 34.9968 86.1877 34.2659 86.3428 33.5277C86.6936 31.8597 86.7043 30.1727 86.5007 28.4779C86.1178 25.3005 83.6101 23.5238 80.6884 23.7367C78.2128 23.9176 76.274 25.0904 75.0255 27.249C74.2315 28.6224 73.4764 30.0237 72.9576 31.5315C72.6136 32.5313 72.2584 33.5277 71.9454 34.5358C70.7905 38.2498 70.0416 42.0433 69.9491 45.9337C69.8781 48.895 69.9937 51.855 70.5559 54.7799C70.5858 54.9361 70.5914 55.126 70.5288 55.2649C70.1549 56.1039 69.6666 56.8735 68.9549 57.4728C67.8638 58.3908 66.3372 58.1287 65.6199 56.8953C65.3983 56.5139 65.2207 56.0994 65.0791 55.681C64.9026 55.1613 64.7588 54.6275 64.6472 54.0898C64.2186 52.0354 64.0314 49.9507 63.8988 47.8599C63.8836 47.6185 63.9276 47.418 64.1041 47.2248C64.2874 47.0237 64.4261 46.7778 64.5592 46.5381C65.5348 44.7799 66.5216 43.0269 67.469 41.2536C68.038 40.1905 68.5901 39.114 69.0626 38.0073C69.6869 36.5488 70.2153 35.0511 70.8046 33.5775C71.4734 31.9051 71.7728 30.1946 71.7243 28.3771C71.6617 25.9849 69.9305 23.8801 67.8801 23.3015C66.8244 23.0041 65.7789 22.985 64.7227 23.1547C63.8605 23.2936 62.9627 23.4522 62.3029 24.0599C61.5101 24.7891 60.6704 25.5262 60.0896 26.4139C58.8484 28.3098 58.0769 30.4332 57.7736 32.6763C57.5418 34.3913 57.4764 36.1287 57.3602 37.8583C57.0918 41.8344 57.1403 45.8055 57.6292 49.7653C57.6687 50.0908 57.5734 50.3383 57.3828 50.5814C56.1224 52.1827 54.8085 53.7364 53.3316 55.1462C52.8488 55.6071 52.2934 55.9527 51.65 56.1521C50.036 56.6511 48.7091 55.9196 48.3595 54.301C48.6792 54.2853 48.9939 54.2825 49.3057 54.2517C51.2541 54.059 52.872 53.1662 54.2592 51.8506C54.6331 51.4966 54.906 51.0121 55.1412 50.5461C55.3966 50.0381 55.576 49.4892 55.7513 48.9465C56.2312 47.4611 56.2064 45.9909 55.563 44.5514C55.0696 43.4475 54.2632 42.767 53.0237 42.5799C52.0165 42.4276 51.0736 42.6023 50.1477 42.9507C49.2234 43.2979 48.4012 43.8043 47.6693 44.4792C46.6548 45.4145 45.5675 46.2827 44.8186 47.4594C44.1938 48.4407 43.5814 49.4343 43.0378 50.461C42.3081 51.8394 41.8304 53.3107 41.7898 54.8829C41.7481 56.4926 41.7893 58.1001 42.3882 59.6319C42.9295 61.0176 43.7517 62.191 45.1564 62.8099C46.7016 63.491 48.3352 63.552 49.9791 63.2378C51.0838 63.0261 51.9736 62.3876 52.7671 61.6416C54.191 60.3057 55.5748 58.9285 56.9796 57.5725C57.2931 57.2695 57.623 56.9844 57.9478 56.6887C58.02 56.7799 58.06 56.8091 58.0685 56.8455C58.1018 56.9894 58.1311 57.1345 58.1514 57.2801C58.3786 58.8848 58.8484 60.4172 59.5764 61.8656C60.3439 63.3913 61.4142 64.6028 63.1167 65.1489C64.3263 65.5364 65.5607 65.8383 66.8177 65.5628C68.5692 65.1785 70.1679 64.4527 71.4159 63.1084C71.7751 62.722 72.1411 62.3417 72.5443 61.9154C72.6627 62.1871 72.7715 62.4122 72.8595 62.6458C73.2734 63.7464 73.9789 64.6246 74.8936 65.3583C75.7879 66.0753 76.8036 66.3827 77.9314 66.2506C79.2989 66.0904 80.3472 65.3527 81.1722 64.2992C81.6239 63.7217 82.013 63.0961 82.4365 62.4834C82.6954 62.7886 82.8989 63.0905 83.1617 63.3291C84.7153 64.7361 87.1182 65.4558 89.3163 64.3507C89.6575 64.1793 89.9981 64.0024 90.3201 63.7974C91.4953 63.0491 92.4625 62.0667 93.4081 61.0596C94.3995 60.0044 95.2606 58.8506 96.0811 57.6649C97.0488 56.2686 97.8885 54.8011 98.5911 53.2542C98.9137 52.5434 99.2983 51.8573 99.7032 51.1885C99.8915 50.8766 100.195 50.6324 100.438 50.3674C101.037 50.7578 101.076 51.2395 100.876 51.7581C100.503 52.7249 100.1 53.6725 99.5092 54.5418C97.5309 57.456 96.5396 60.6183 97.2546 64.1547C97.6178 65.9504 98.2872 67.6206 99.75 68.8264C101.061 69.9069 102.458 70.8557 104.052 71.5244C106.202 72.4267 108.384 72.7084 110.666 72.1904C112.246 71.8313 113.738 71.2841 114.891 70.0984C116.101 68.8556 117.104 67.4677 117.628 65.793C118.131 64.1872 118.168 62.5808 117.465 61.021V61.0193ZM76.6648 42.52C77.0336 40.5938 77.3184 38.6464 77.8068 36.7504C78.1727 35.3278 78.7869 33.9662 79.3181 32.5878C79.5256 32.0496 79.8233 31.5673 80.4617 31.4055C81.2123 31.2156 81.7305 31.5881 81.7029 32.3492C81.6555 33.6173 81.2489 34.7996 80.7087 35.926C80.1876 37.0098 79.5966 38.0622 78.9966 39.1062C78.3538 40.2236 77.6641 41.3146 76.9942 42.4164C76.9208 42.5373 76.8385 42.6527 76.6958 42.8661C76.6767 42.6667 76.6519 42.5894 76.6654 42.5194L76.6648 42.52ZM52.1073 47.5961C52.3791 48.8748 50.4313 50.4548 48.7114 50.3125C49.2477 49.049 51.1379 47.558 52.1073 47.5961ZM63.565 40.3703C63.6287 39.7016 63.6891 39.0311 63.7567 38.3624C63.9468 36.49 64.2321 34.6316 64.7611 32.8225C65.0334 31.8894 65.4056 30.9888 65.9566 30.1755C66.2256 29.7778 66.5718 29.4804 67.0596 29.3707C67.5728 29.2553 67.866 29.4457 67.8457 29.9638C67.826 30.4673 67.7419 30.9703 67.6557 31.4688C67.4149 32.8561 66.8464 34.1371 66.2594 35.4006C65.5381 36.9532 64.7475 38.4733 63.9829 40.0051C63.9112 40.148 63.8137 40.2779 63.7274 40.414C63.6733 40.3995 63.6191 40.3855 63.565 40.3709V40.3703ZM86.1719 52.9433C86.4781 52.0287 86.7302 51.0933 87.2315 50.2515C87.4926 49.8124 87.8575 49.4993 88.4028 49.4847C88.8212 49.4741 88.9898 49.6488 88.9707 50.0633C88.9464 50.5769 88.7158 51.0132 88.3453 51.3454C87.6872 51.9363 86.9936 52.4885 86.3152 53.0564C86.2672 53.0184 86.2199 52.9808 86.1719 52.9427V52.9433Z" fill="black"/>
<path id="Vector_2" d="M25.6763 60.3208C25.4332 60.8327 25.1952 61.3469 24.9466 61.8554C24.1853 63.4131 23.4533 64.9864 22.6452 66.5199C21.9646 67.8115 21.2275 69.0751 20.2739 70.2003C19.2814 71.372 18.2218 72.4871 16.9045 73.2819C14.6353 74.6513 11.5157 75.0305 9.11453 72.9268C8.76377 72.6193 8.40794 72.3141 8.08482 71.9786C7.42108 71.2902 6.98292 70.4842 6.84363 69.5259C6.66148 68.273 6.31693 67.047 6.35866 65.7593C6.40885 64.2039 6.59212 62.6821 7.20228 61.2343C7.73575 59.9679 8.25343 58.6943 8.82073 57.443C9.06378 56.907 9.38408 56.3979 9.72074 55.9123C10.9106 54.1951 11.7875 52.3182 12.6458 50.4273C12.9949 49.6577 13.4285 48.9263 13.8137 48.1724C14.1791 47.4571 14.5248 46.7318 14.8924 46.0171C15.405 45.0196 15.943 44.0355 16.446 43.033C17.1481 41.6333 17.8271 40.2224 18.5179 38.8166C18.6673 38.5124 18.8004 38.1977 18.9792 37.9115C19.6999 36.7594 19.7044 35.4975 19.5425 34.2232C19.432 33.3501 18.6605 32.725 17.584 32.5962C15.6898 32.3693 14.0347 32.8897 12.7112 34.277C11.7559 35.2785 10.9196 36.3762 10.42 37.6818C10.2875 38.028 10.2322 38.4133 10.2035 38.7852C10.1798 39.0888 10.3879 39.2663 10.698 39.2081C10.9856 39.1543 11.2726 39.0653 11.5399 38.9471C11.7503 38.8541 11.9307 38.6928 12.1236 38.5606C12.8093 38.0924 13.5593 37.9759 14.3009 38.3405C15.0735 38.7208 15.4383 39.4388 15.4299 40.2678C15.4248 40.8038 15.2646 41.3482 15.1067 41.8691C15.0047 42.2063 14.8265 42.5434 14.6048 42.8184C13.9016 43.6916 13.2052 44.5771 12.4242 45.3797C11.6651 46.16 10.6309 46.5095 9.59781 46.7772C9.00513 46.9306 8.37975 47.0079 7.7662 47.0242C4.98777 47.0981 2.84657 45.9538 1.30087 43.6547C0.408189 42.3272 -0.103849 40.913 0.0173931 39.2999C0.0940861 38.2828 0.260442 37.2825 0.616275 36.3242C1.26253 34.5839 2.14111 32.9754 3.41275 31.5975C3.94509 31.0206 4.46671 30.4342 4.9951 29.8534C5.10902 29.7279 5.22067 29.5963 5.35207 29.4905C7.48424 27.7727 9.73371 26.2682 12.4614 25.6314C13.3107 25.4331 14.1509 25.1884 15.008 25.0372C16.6767 24.7431 18.3572 24.6613 20.01 25.1206C20.6613 25.3015 21.3042 25.5536 21.907 25.8594C24.1486 26.9958 25.242 28.9085 25.5499 31.327C25.7022 32.5222 25.5392 33.6934 25.237 34.8455C24.774 36.6092 24.1424 38.3114 23.3388 39.9536C22.3339 42.0063 21.4012 44.0949 20.3608 46.1297C19.2414 48.3191 18.3036 50.5858 17.3387 52.8402C16.4257 54.9736 15.8489 57.2056 15.7496 59.5333C15.7248 60.1169 15.7755 60.7224 15.9114 61.2898C16.0823 62.0044 16.6913 62.1921 17.2801 61.7378C17.5564 61.525 17.7932 61.2231 17.9585 60.9145C18.6684 59.591 19.4072 58.2776 20.0202 56.9093C21.1356 54.4185 22.2482 51.9211 23.217 49.3721C24.4672 46.0838 26.0496 42.9439 27.4188 39.7094C27.9652 38.4189 28.868 37.3648 30.0359 36.5734C30.4487 36.2939 30.9359 36.0749 31.4203 35.9584C32.476 35.7047 33.4956 36.2922 33.8689 37.3077C34.0984 37.9333 34.1779 38.5847 34.0443 39.2439C33.667 41.109 33.2632 42.9685 32.9029 44.8365C32.6187 46.3101 32.2978 47.7842 32.1495 49.273C31.9781 50.9952 31.9476 52.7343 31.9222 54.4673C31.9149 54.9534 32.0739 55.4726 32.2781 55.9229C32.5194 56.455 32.9226 56.515 33.4431 56.2192C33.9055 55.9565 34.2078 55.5471 34.4384 55.0884C35.0204 53.9301 35.4377 52.713 35.7619 51.459C36.292 49.4068 36.6417 47.3221 36.887 45.2218C37.0319 43.984 37.09 42.7361 37.1667 41.491C37.302 39.2994 38.0379 37.3077 39.2932 35.5277C39.7483 34.8825 40.3844 34.3414 41.0115 33.8452C41.607 33.3736 42.2769 32.9821 42.9513 32.6253C44.7971 31.6479 46.7324 31.3573 48.7462 32.0518C50.1171 32.5245 50.9184 33.5405 51.153 34.925C51.396 36.3589 50.8761 37.5608 49.6659 38.4015C49.2374 38.6995 48.731 38.9006 48.2387 39.0899C47.6245 39.3263 46.9958 39.5346 46.3591 39.7026C44.483 40.1989 43.451 41.5409 42.8047 43.2301C42.5042 44.0159 42.3293 44.851 42.1269 45.671C41.6611 47.5596 41.1993 49.4488 40.7628 51.3442C40.3596 53.0945 40.0342 54.8638 39.5949 56.6051C39.1037 58.5515 38.5528 60.4866 37.7808 62.3467C37.3313 63.4293 36.7088 64.4196 35.917 65.2871C34.2732 67.0884 32.0435 67.5443 29.7596 66.5501C28.3081 65.9178 27.2761 64.9388 26.7731 63.4416C26.477 62.5612 26.2126 61.6706 25.9357 60.784C25.8922 60.6456 25.8578 60.5051 25.8195 60.3656C25.7716 60.3499 25.7231 60.3342 25.6751 60.3186L25.6763 60.3208Z" fill="black"/>
<path id="Vector_3" d="M34.404 78.8056C34.4198 77.6832 34.8958 76.6762 35.7755 75.7638C37.5264 73.9474 39.5881 72.6485 41.9797 71.8946C43.7651 71.3318 45.6091 70.9912 47.4813 70.8243C50.6872 70.5381 53.8998 70.4188 57.1136 70.5975C60.1069 70.7638 63.1024 70.9072 66.0517 71.5513C68.3147 72.0459 70.6076 72.4071 72.8881 72.8238C75.6908 73.3358 78.4957 73.8365 81.2414 74.6105C82.7347 75.0317 84.2262 75.4585 85.7122 75.9021C86.1171 76.0231 86.5135 76.19 86.8925 76.3782C87.4366 76.6487 87.6498 77.1013 87.4992 77.5622C87.3594 77.9913 86.8547 78.2988 86.3218 78.2523C86.0477 78.2282 85.777 78.161 85.5052 78.1106C83.4356 77.7258 81.374 77.2889 79.2942 76.9725C77.9312 76.7652 76.5429 76.7171 75.1635 76.6224C73.8265 76.53 72.4872 76.4661 71.1484 76.395C68.9514 76.2785 66.7685 76.47 64.5861 76.6885C63.0195 76.8453 61.4428 76.9338 59.8875 77.1618C57.3014 77.541 54.704 77.8944 52.2256 78.786C51.1784 79.163 50.2253 79.6945 49.3225 80.3532C48.4168 81.0141 47.4503 81.5988 46.4758 82.1584C45.52 82.7067 44.5546 83.2433 43.4837 83.5687C41.056 84.3063 38.7315 84.1254 36.5351 82.8282C36.1792 82.6182 35.8505 82.3169 35.595 81.9915C34.6589 80.7968 34.3961 80.0675 34.4035 78.8068L34.404 78.8056Z" fill="black"/>
<path id="Vector_4" d="M69.5784 3.94471C69.9157 3.37565 70.1739 2.92198 70.4503 2.47894C70.6741 2.12048 70.8867 1.74802 71.1602 1.42933C71.9503 0.507416 73.2213 0.47549 74.0971 1.32459C74.4608 1.67689 74.581 2.116 74.5358 2.5988C74.4806 3.19362 74.3328 3.76828 73.9922 4.27124C73.6719 4.74396 73.3403 5.21052 72.9941 5.66476C71.7653 7.27558 70.995 9.03876 71.0452 11.1066C71.0661 11.9546 70.9651 12.7992 70.5974 13.5828C69.9523 14.9567 67.9961 15.1802 67.038 14.0001C66.7555 13.6517 66.6179 13.2596 66.6692 12.8227C66.7211 12.3836 66.8147 11.949 66.8964 11.5133C66.9585 11.1811 67.0222 10.8484 67.1006 10.5196C67.3814 9.33841 67.206 8.23502 66.6816 7.13444C66.3026 6.33911 66.0319 5.48329 65.8019 4.63082C65.6214 3.96207 65.5318 3.25971 65.4906 2.56688C65.4652 2.13617 65.5724 1.68697 65.6795 1.2613C65.8633 0.53094 66.3658 0.0694227 67.113 0.00669222C67.8624 -0.0565983 68.4252 0.370753 68.7664 0.996377C68.9953 1.41589 69.1064 1.90373 69.2339 2.37141C69.3613 2.83908 69.4437 3.31908 69.5784 3.94583V3.94471Z" fill="black"/>
<path id="Vector_5" d="M40.6737 7.58099C40.7464 6.85287 40.7876 6.24852 40.8728 5.6509C40.9348 5.21515 41.0013 4.76652 41.1615 4.36045C41.4914 3.52367 42.2532 3.14225 43.2378 3.24418C44.033 3.32652 44.4897 3.79308 44.7226 4.67466C44.942 5.50416 44.7942 6.30677 44.6488 7.12115C44.4852 8.0341 44.3206 8.94929 44.223 9.87065C44.0967 11.0569 44.4395 12.1681 44.8822 13.2587C45.136 13.8832 45.3559 14.5256 45.5313 15.1759C45.6221 15.5141 45.6243 15.8905 45.5933 16.2439C45.5115 17.1883 44.7142 17.8727 43.6157 17.9858C42.6795 18.0822 41.9047 17.5787 41.6402 16.6467C41.4384 15.9359 41.285 15.2111 41.1322 14.4881C40.8942 13.3651 40.319 12.4672 39.4145 11.7514C38.2184 10.8054 37.2902 9.62701 36.5232 8.31863C36.2419 7.83863 36.0388 7.33959 35.9903 6.77557C35.9204 5.95616 36.2058 5.29637 36.8052 4.98663C37.35 4.70491 38.3255 4.83205 38.8252 5.34565C39.3552 5.89006 39.8081 6.50841 40.293 7.09539C40.3951 7.21917 40.491 7.34799 40.6737 7.58211V7.58099Z" fill="black"/>
<path id="Vector_6" d="M54.817 5.15051C54.8649 5.63331 54.9083 6.06906 54.9591 6.58043C55.3149 6.58043 55.6482 6.59723 55.9792 6.57707C56.6813 6.5345 57.1899 6.83359 57.4555 7.46034C57.7409 8.13469 57.777 8.83481 57.2864 9.44139C57.1251 9.64022 56.8488 9.77352 56.5989 9.8693C56.2448 10.0043 55.867 10.0771 55.4158 10.1986C55.4835 10.6417 55.5512 11.0853 55.6307 11.6039C56.0051 11.549 56.3345 11.4975 56.6649 11.4532C57.1166 11.3928 57.5503 11.4241 57.9642 11.6493C58.6505 12.0234 58.9894 13.4214 58.6663 13.9725C58.4965 14.2621 58.1971 14.5466 57.8898 14.6749C56.7055 15.1678 55.4536 15.2501 54.1916 15.0714C53.6778 14.9986 53.2216 14.3713 53.1393 13.6931C53.0604 13.0422 53.0265 12.3864 52.947 11.7361C52.6989 9.70183 52.435 7.66925 52.1835 5.63555C52.0774 4.77749 51.9319 3.92615 52.0577 3.04904C52.2128 1.96806 52.8523 1.33684 53.8532 1.05847C54.8322 0.785704 55.7914 0.886521 56.6847 1.41469C57.1155 1.66953 57.4031 2.02855 57.4364 2.52647C57.4629 2.92246 57.4691 3.33413 57.3884 3.71947C57.2469 4.39775 56.8228 4.84134 56.0999 4.95C55.6848 5.01217 55.2703 5.08106 54.8175 5.15275L54.817 5.15051Z" fill="black"/>
<path id="Vector_7" d="M81.9176 14.0861C82.2949 14.2099 82.635 14.313 82.9688 14.4328C83.3946 14.5857 83.7921 14.7823 84.0273 15.2001C84.3848 15.8347 84.1981 17.1117 83.6145 17.5458C83.3624 17.7334 82.9835 17.8533 82.6688 17.8399C81.3616 17.785 80.1796 17.31 79.1003 16.5965C78.9272 16.4822 78.8105 16.2318 78.7439 16.0207C78.5995 15.5631 78.6509 15.1033 78.8364 14.6557C79.94 11.9936 80.7503 9.23123 81.6723 6.50638C81.8669 5.93172 82.1472 5.37611 82.4556 4.85074C82.9767 3.96244 83.8164 3.65606 84.8055 3.80673C85.8606 3.96692 86.7205 4.47548 87.3205 5.38059C87.5986 5.79954 87.6837 6.24762 87.5055 6.70913C87.3696 7.06087 87.2004 7.41373 86.9766 7.7145C86.5423 8.29756 85.9452 8.50983 85.2267 8.30148C84.8404 8.18946 84.4581 8.06512 84.0126 7.92734C83.8395 8.37877 83.6765 8.80332 83.4932 9.28164C83.8338 9.44463 84.1276 9.60201 84.435 9.7286C85.0846 9.99632 85.406 10.4791 85.3683 11.1652C85.3271 11.9034 85.031 12.5296 84.3374 12.8735C84.126 12.9783 83.8384 12.9788 83.5925 12.9559C83.1921 12.9183 82.7968 12.8226 82.3304 12.7385C82.1979 13.1715 82.066 13.6033 81.9182 14.0861H81.9176Z" fill="black"/>
</g>
<defs>
<clipPath id="clip0_2048_546794">
<rect width="118" height="84" fill="white"/>
</clipPath>
</defs>
</svg>
